<svg xmlns="http://www.w3.org/2000/svg" width="474" height="114"><defs><pattern href="#B" preserveAspectRatio="xMidYMid" id="A" patternTransform="scale(1)"/><pattern patternUnits="userSpaceOnUse" width="2" height="2" patternTransform="translate(0,0) scale(10,10)" id="B" preserveAspectRatio="xMidYMid" fill="#000"><g stroke="none"><path d="M0 0h1v1H0z"/><path d="M1 1h1v1H1z"/></g></pattern><filter id="C" x="0" y="-.003" width="1.001" height="1.007" color-interpolation-filters="sRGB"><feColorMatrix values="0.21 0.72 0.072 0 0 0.21 0.72 0.072 0 0 0.21 0.72 0.072 0 0 0 0 0 1 0 "/></filter></defs><g fill="url(#A)" filter="url(#C)"><path d="M316.12 29.02l-1.3.82 8.17 10.83 1.29-.82-8.16-10.83zM103.73 62.71v1.12h24.37v-1.12h-24.37zm0 .56h24.37-24.37zm227.34-23.68a.86.62 0 0 0-.65.07.86.62 0 0 0-.31.85l3.89 4.84a.86.62 0 0 0 1.18.22.86.62 0 0 0 .31-.85l-3.9-4.84a.86.62 0 0 0-.52-.29zm-54.61.11a.86.62 0 0 0-.65.06.86.62 0 0 0-.31.85l3.9 4.84a.86.62 0 0 0 1.17.23.86.62 0 0 0 .31-.86l-3.89-4.83a.86.62 0 0 0-.53-.29h0zm46.28 10.68a.86.62 0 0 0-.65.07.86.62 0 0 0-.31.85l3.89 4.84a.86.62 0 0 0 1.18.22.86.62 0 0 0 .31-.85l-3.9-4.84a.86.62 0 0 0-.52-.29h0zm-54.99.36a.86.62 0 0 0-.31.85l3.89 4.84a.86.62 0 0 0 1.18.22.86.62 0 0 0 .31-.85l-3.9-4.84a.86.62 0 0 0-1.17-.22zm.43.54l3.9 4.83m4.17-15.81l3.89 4.84m42.38 5.85l3.89 4.83m4.44-15.62l3.9 4.83M291.51 61.7a.87.63 0 0 0-.87.63.87.63 0 0 0 .87.63h31.1a.87.63 0 0 0 .86-.63.87.63 0 0 0-.86-.63h-31.1zm0 .63h31.09M42.22 27.94a.97.71 0 0 0-.78.37.97.71 0 0 0-.09.03L10.21 73.53a.97.71 0 0 0-.01.05.97.71 0 0 0-.04.16.97.71 0 0 0-.06.11.97.71 0 0 0 .06.1.97.71 0 0 0 .04.16.97.71 0 0 0 .01.05l7.78 11.3a.97.71 0 0 0 .12.08.97.71 0 0 0 .27.17.97.71 0 0 0 .33.1.97.71 0 0 0 .15.04h23.36a.97.71 0 0 0 .14-.04.97.71 0 0 0 .22-.03.97.71 0 0 0 .07 0 .97.71 0 0 0 .17-.11.97.71 0 0 0 .11-.07.97.71 0 0 0 .12-.12.97.71 0 0 0 .04-.02l7.51-10.91h22.76a.97.71 0 0 0 .14-.04.97.71 0 0 0 .22-.03.97.71 0 0 0 .07 0 .97.71 0 0 0 .17-.11.97.71 0 0 0 .11-.07.97.71 0 0 0 .12-.12.97.71 0 0 0 .04-.02l6.91-10.03 14.7 21.33a.97.71 0 0 0 .12.08.97.71 0 0 0 .27.17.97.71 0 0 0 .34.1.97.71 0 0 0 .14.04h54.5a.97.71 0 0 0 .14-.04.97.71 0 0 0 .22-.03.97.71 0 0 0 .07 0 .97.71 0 0 0 .17-.11.97.71 0 0 0 .11-.07.97.71 0 0 0 .12-.12.97.71 0 0 0 .04-.02l6.91-10.03 6.92 10.03a.97.71 0 0 0 .12.08.97.71 0 0 0 .27.17.97.71 0 0 0 .33.1.97.71 0 0 0 .15.04h70.06a.97.71 0 0 0 .15-.04.97.71 0 0 0 .22-.03.97.71 0 0 0 .07 0 .97.71 0 0 0 .16-.11.97.71 0 0 0 .12-.07.97.71 0 0 0 .12-.12.97.71 0 0 0 .03-.02l15.31-22.21h14.36l15.3 22.21a.97.71 0 0 0 .09.02.97.71 0 0 0 .78.37h155.71a.97.71 0 0 0 .33-.1.97.71 0 0 0 .1.03.97.71 0 0 0 .17-.11.97.71 0 0 0 .11-.07.97.71 0 0 0 .13-.13.97.71 0 0 0 .03-.01l23.35-33.9a.97.71 0 0 0 .04-.13.97.71 0 0 0 .05-.18.97.71 0 0 0-.05-.18.97.71 0 0 0-.04-.14l-7.78-11.3a.97.71 0 0 0-.02 0 .97.71 0 0 0-.02-.02.97.71 0 0 0-.07-.08.97.71 0 0 0-.27-.17.97.71 0 0 0-.06-.04.97.71 0 0 0-.01 0 .97.71 0 0 0-.42-.08h-54.5a.97.71 0 0 0-.78.37.97.71 0 0 0-.09.02l-6.91 10.04-6.92-10.04a.97.71 0 0 0-.01 0 .97.71 0 0 0-.86-.39h-46.71a.97.71 0 0 0-.78.37.97.71 0 0 0-.09.02l-15.57 22.6a.97.71 0 0 0-.01.05.97.71 0 0 0-.02.27.97.71 0 0 0 .02.26.97.71 0 0 0 .01.05l7.08 10.28h-52.32l-7.3-10.59 22.87-33.19h21.18l-7.08 10.27a.97.71 0 0 0-.02.17.97.71 0 0 0-.08.15.97.71 0 0 0 .06.11.97.71 0 0 0 .14.24.97.71 0 0 0 .23.19.97.71 0 0 0 .1.09.97.71 0 0 0 .11-.02.97.71 0 0 0 .33.1h21.78l-6.81 9.88h-22.76a.97.71 0 0 0-.33.1.97.71 0 0 0-.1-.02.97.71 0 0 0-.11.08.97.71 0 0 0-.23.2.97.71 0 0 0-.02.01.97.71 0 0 0-.08.02l-7.78 11.3a.97.71 0 0 0 .44.95.97.71 0 0 0 1.3-.32l6.92-10.03 6.91 10.03a.97.71 0 0 0 1.31.32.97.71 0 0 0 .43-.95l-7.08-10.28h21.78a.97.71 0 0 0 .78-.37.97.71 0 0 0 .09-.02l7.79-11.3a.97.71 0 0 0 .07-.26.97.71 0 0 0 .03-.05.97.71 0 0 0-.01-.03.97.71 0 0 0-.02-.07.97.71 0 0 0-.11-.24.97.71 0 0 0-.08-.08.97.71 0 0 0-.26-.17.97.71 0 0 0-.06-.04.97.71 0 0 0-.01 0 .97.71 0 0 0-.42-.08h-21.78l7.08-10.27a.97.71 0 0 0 .07-.27.97.71 0 0 0 .03-.05.97.71 0 0 0-.01-.02.97.71 0 0 0-.02-.07.97.71 0 0 0-.11-.25.97.71 0 0 0-.08-.08.97.71 0 0 0-.26-.17.97.71 0 0 0-.06-.04.97.71 0 0 0-.01 0 .97.71 0 0 0-.42-.08h-23.36a.97.71 0 0 0-.78.37.97.71 0 0 0-.09.02l-23.09 33.51h-14.36l-6.82-9.89h21.78a.97.71 0 0 0 .78-.36.97.71 0 0 0 .09-.03l7.79-11.29a.97.71 0 0 0 .08-.27.97.71 0 0 0 .02-.05.97.71 0 0 0-.01-.03.97.71 0 0 0-.02-.07.97.71 0 0 0-.11-.24.97.71 0 0 0-.07-.08.97.71 0 0 0-.27-.17.97.71 0 0 0-.06-.04.97.71 0 0 0-.01 0 .97.71 0 0 0-.42-.08h-46.71a.97.71 0 0 0-.15.05.97.71 0 0 0-.33.1.97.71 0 0 0-.27.17.97.71 0 0 0-.12.07l-6.92 10.04-6.91-10.04a.97.71 0 0 0-.03-.02.97.71 0 0 0-.52-.32.97.71 0 0 0-.06-.01.97.71 0 0 0-.26-.04h-46.71a.97.71 0 0 0-.15.05.97.71 0 0 0-.33.1.97.71 0 0 0-.27.17.97.71 0 0 0-.12.07l-6.92 10.04-6.91-10.04a.97.71 0 0 0-.04-.02.97.71 0 0 0-.51-.32.97.71 0 0 0-.06-.01.97.71 0 0 0-.26-.04h-7.79a.97.71 0 0 0-.14.05.97.71 0 0 0-.34.1.97.71 0 0 0-.27.17.97.71 0 0 0-.12.07l-15.57 22.6a.97.71 0 0 0 .44.95.97.71 0 0 0 1.3-.32l15.3-22.21h6.58l7.3 10.6-15.08 21.89H89.53l-7.3-10.59 15.08-21.89h21.18l-14.86 21.57a.97.71 0 0 0 .43.95.97.71 0 0 0 1.31-.32l14.7-21.33 6.69 9.72-7.56 10.98a.97.71 0 0 0 .43.95.97.71 0 0 0 1.31-.32l7.78-11.3a.97.71 0 0 0 .02-.04.97.71 0 0 0 .05-.14.97.71 0 0 0 .02-.13.97.71 0 0 0-.02-.14.97.71 0 0 0-.05-.13.97.71 0 0 0-.02-.05l-15.57-22.59a.97.71 0 0 0-.03-.03.97.71 0 0 0-.51-.32.97.71 0 0 0-.06-.01.97.71 0 0 0-.27-.04H42.22zm.6 1.42h68.86l6.81 9.88h-60.7a.97.71 0 0 0-.15.05.97.71 0 0 0-.34.1.97.71 0 0 0-.26.17.97.71 0 0 0-.12.07l-7.79 11.3a.97.71 0 0 0 .03.08.97.71 0 0 0-.13.24.97.71 0 0 0 .5.56.97.71 0 0 0 .03.07.97.71 0 0 0 .11-.03.97.71 0 0 0 .33.1h21.78l-6.81 9.89H42.22a.97.71 0 0 0-.33.1.97.71 0 0 0-.11-.03.97.71 0 0 0-.03.07.97.71 0 0 0-.32.23.97.71 0 0 0-.09.02l-7.51 10.91H12.65l30.17-43.78zm15.57 11.3h36.75l-6.82 9.88H51.58l6.81-9.88zm108.99 0h45.51l7.29 10.59-7.29 10.59h-38.33a.97.71 0 0 0-.97.71.97.71 0 0 0 .97.7h37.35l-6.81 9.89h-45.51l-7.29-10.59 15.08-21.89zm62.28 0h6.58l7.3 10.59-15.08 21.89h-21.18l22.38-32.48zm8.76 0h35.77l-6.81 9.88h-22.15l-6.81-9.88zm100.23 0h45.51l7.3 10.59-15.09 21.89h-45.5l-7.3-10.59 15.08-21.89zm62.28 0h52.32l-6.81 9.88h-38.32a.97.71 0 0 0-.98.71.97.71 0 0 0 .98.7h37.35l-14.6 21.19h-52.32l22.38-32.48zm53.9.87l6.69 9.72-6.69 9.72-6.7-9.72 6.7-9.72zM74.93 51.95h12.42l-6.21 9.02-6.21-9.02zm-1.57.88l6.69 9.72-6.69 9.71-6.7-9.71 6.7-9.72zm171.27 0l6.69 9.72-14.48 21.01-6.69-9.72 14.48-21.01zm202.41 0l6.7 9.72-14.48 21.01-6.7-9.72 14.48-21.01zM43.79 63.25h21.18l6.81 9.89H50.6l-6.81-9.89zm-1.57.87l6.69 9.72-6.69 9.72-6.7-9.72 6.7-9.72zm108.99 0l6.69 9.72-6.69 9.72-6.7-9.72 6.7-9.72zM12.65 74.55h21.18l6.81 9.89H19.46l-6.81-9.89zm77.85 0h52.32l6.81 9.89H97.31l-6.81-9.89zm70.07 0h44.53l6.81 9.89h-44.53l-6.81-9.89zm46.71 0h21.17l6.82 9.89h-21.18l-6.81-9.89zm70.06 0h52.32l6.81 9.89h-52.31l-6.82-9.89zm54.5 0h44.53l6.81 9.89h-44.53l-6.81-9.89zm46.71 0h52.32l6.81 9.89h-52.32l-6.81-9.89zM42.22 28.65h70.06m-70.06 0L11.08 73.84m0 0h23.35m-23.35 0l7.78 11.3m0 0h23.36m15.56-45.19h62.29m-7.79-11.3l15.57 22.6m-70.06-11.3L50 51.25m0 0h38.93m7.78-11.3l-23.35 33.9m46.71-33.9l-15.57 22.6m23.35-11.3l-7.78 11.3m171.27-33.9h23.36m-23.36 0l-23.36 33.9m46.71-33.9l-7.78 11.3m0 0h23.36m-186.85 0h7.79m-7.79 0l-15.57 22.6m23.36-22.6l7.78 11.3m7.79-11.3h46.71m-46.71 0l-23.36 33.9m70.07-33.9l7.78 11.3m-70.06 11.3l15.57 22.59m62.28-45.19h46.71m-46.71 0l-23.36 33.9m31.14-33.9l15.57 22.6m-7.78-11.3h23.36m7.78-11.3l-7.78 11.3m-93.43 11.3h38.93m31.14-11.3l-15.57 22.6m23.36-11.3h15.57m-109 11.3h70.07m23.35-11.3l-15.57 22.59m31.14-22.59l15.57 22.59m-116.77 0h70.06M205.7 73.85l7.79 11.29m15.57-11.29l7.78 11.29M42.22 62.55h23.35m7.79-11.3l-7.79 11.3m7.79-11.3l23.35 33.89M42.22 62.55l-7.79 11.3m7.79-11.3L50 73.85m0 0h23.36m-7.79-11.3l7.79 11.3m15.57 0h54.49m-108.99 0l7.79 11.29M50 73.85l-7.78 11.29m54.49 0h54.5m-7.79-11.29l7.79 11.29m7.78-11.29l-7.78 11.29m186.84-45.19h46.71m-46.71 0l-15.57 22.6m62.28-22.6l7.79 11.3m7.78-11.3h54.5m-54.5 0l-23.35 33.9m-77.85-22.6h23.35m7.79-11.3l-7.79 11.3m-23.36 0l-7.78 11.3m7.78-11.3l7.79 11.3m15.57 0l15.57 22.59m70.07-33.89h38.92m7.79-11.3l-23.36 33.9m23.36-33.9l7.78 11.3m-15.57 0l7.79 11.3m7.78-11.3l-23.35 33.89M275.77 73.85h155.7M283.55 85.14h155.71m-62.28-11.3l7.78 11.3m46.71-11.3l7.79 11.3M174.57 50.25a1 1 0 1 0 0 2h31.14a1 1 0 1 0 0-2h-31.14zm171.27 0a1 1 0 1 0 0 2h31.14a1 1 0 1 0 0-2h-31.14zm0 11.3a1 1 0 1 0 0 2h77.85a1 1 0 1 0 0-2h-77.85zm-171.28-10.3h31.14m140.14 0h31.14m-31.14 11.3h77.85M322.06 40.14h1.68l.16-.1-.46-.61h-1.91l.53.71zm0 0l.53.7h.04l1.11-.7h-1.68zm1.38-.71l-7.7-10.23-1.05.67-.17.25 7.01 9.31h1.91zm-8.92-9.31l.17-.25-.25.16.08.09zM120.66 62.9l-.11.15a.97.71 0 0 1-1.3.32.97.71 0 0 1-.48-.47h-13.68l-.11.15a.97.71 0 0 1-1.3.32.97.71 0 0 1-.33-.28v.37h24.36v-.06a.97.71 0 0 1-.68-.03.97.71 0 0 1-.48-.47h-5.89zm0 0h-1.89a.97.71 0 0 0 .48.47.97.71 0 0 0 1.3-.32l.11-.15zm-15.57 0h-1.74v.19a.97.71 0 0 0 .33.28.97.71 0 0 0 1.3-.32l.11-.15zm-1.74.56v.56h24.36v-.56h-24.36zm24.36-.06v-.5h-1.16a.97.71 0 0 0 .48.47.97.71 0 0 0 .68.03zm148.61-23.38a.97.71 0 0 1 .01.02.97.71 0 0 1 .02.07.97.71 0 0 1 .01.03.97.71 0 0 1-.03.05.97.71 0 0 1-.07.26l-.2.29 3.02 3.75.46-.67-2.93-3.65a.86.62 0 0 0-.29-.15h0zm0 0a.86.62 0 0 0-.24-.14.86.62 0 0 0-.65.07.86.62 0 0 0-.07.19h.03l-.05.07a.86.62 0 0 0-.22.59l.49.6.45-.66h0l.2-.29a.97.71 0 0 0 .07-.26.97.71 0 0 0 .03-.05.97.71 0 0 0-.01-.03.97.71 0 0 0-.02-.07.97.71 0 0 0-.01-.02h0zm-.26.72l-.45.66 3.02 3.75.45-.66-3.02-3.75zm3.02 3.75l.59.73.46-.67-.59-.73-.46.67zm0 0l-.45.66.39.49a.86.62 0 0 0 .32.06l.33-.48-.59-.73zm.59.73l-.33.48a.86.62 0 0 0 .85.16.86.62 0 0 0 .25-.18l.1-.14a.86.62 0 0 0-.04-.53l-.37-.46-.46.67zm50.06-5.08h.15l-.2.3a.86.62 0 0 0 .05.26l.46.57.46-.66h0l.1-.16a.97.71 0 0 0 .08-.26.97.71 0 0 0 .03-.05.97.71 0 0 0-.01-.03.97.71 0 0 0-.02-.07.97.71 0 0 0-.11-.24.86.62 0 0 0-.03-.02.86.62 0 0 0-.65.07.86.62 0 0 0-.31.29h0zm0 0a.86.62 0 0 0-.05.3l.2-.3h-.15zm.46 1.13l3.02 3.76.46-.67-3.02-3.75-.46.66zm3.02 3.76l.41.51a.86.62 0 0 0 .24.13l.4-.58-.59-.73-.46.67zm.65.64a.86.62 0 0 0 .94.09.86.62 0 0 0 .15-.1l.25-.37a.86.62 0 0 0-.09-.38l-.39-.49-.46.67h0l-.4.58zm1.09-.01a.86.62 0 0 0 .25-.37l-.25.37zm-.23-1.24l-.59-.73-.46.67.59.73.46-.67zm-1.05-.06l.46-.67-2.92-3.62a.86.62 0 0 0-.49-.27.97.71 0 0 1 .11.24.97.71 0 0 1 .02.07.97.71 0 0 1 .01.03.97.71 0 0 1-.03.04.97.71 0 0 1-.08.27l-.1.16 3.02 3.75zm-58.31-4.22a.86.62 0 0 0-.03.07l.05-.07h-.02zm-3.03 15.72l-.71 1.03a.86.62 0 0 0 .51-.05.86.62 0 0 0 .31-.85l-.11-.13zm0 0l-.58-.72-.46.66h0l-.46.67.12.15a.86.62 0 0 0 .68.27l.7-1.03zm-1.5.61l.46-.67-3.15-3.91a.97.71 0 0 1-.54.25h-.25l3.48 4.33zm-3.48-4.33h.25a.97.71 0 0 0 .54-.25h0a.97.71 0 0 0 .24-.11.97.71 0 0 0 .09-.03l.26-.37-.19-.23a.86.62 0 0 0-.66-.12l-.28.41h-.42a.86.62 0 0 0-.12.34l.29.36zm-.17-.7h.42l.28-.41a.86.62 0 0 0-.52-.1.86.62 0 0 0-.18.51zm1.55-.06l-.26.37a.97.71 0 0 1-.09.03.97.71 0 0 1-.24.11l3.15 3.91.46-.66-3.02-3.76zm56.68 4.97l.41-.6-3.13-3.89a.97.71 0 0 1-.59.28h-.18l3.37 4.19a.86.62 0 0 0 .12.02zm0 0a.86.62 0 0 0 .96.19l.46-.68a.86.62 0 0 0-.06-.16l-.49-.62-.46.67h0l-.41.6zm.41-.6l.46-.67-3.02-3.75-.29.42a.97.71 0 0 1-.09.03.97.71 0 0 1-.19.08l3.13 3.89zm-3.13-3.89l-.48-.59-.11.17h-.69a.86.62 0 0 0-.02.05l.53.65h.18a.97.71 0 0 0 .59-.28h0zm0 0a.97.71 0 0 0 .19-.08.97.71 0 0 0 .09-.03l.29-.42-.38-.47a.86.62 0 0 0-.28-.15l-.39.56.48.59zm-.48-.59l.39-.56a.86.62 0 0 0-.25-.14.86.62 0 0 0-.65.07.86.62 0 0 0-.29.8h.69l.11-.17zm4.62 4.59l-.46.68a.86.62 0 0 0 .09.01.86.62 0 0 0 .37-.69zm-35.17 7.29a.97.71 0 0 0 .17-.1l.36-.53h0l.44-.63h-1.09 0-.41a.87.63 0 0 0-.87.63.87.63 0 0 0 .87.63h.53zm0 0h14.16a.97.71 0 0 1-.17-.1l-.36-.53h-13.1l-.36.53a.97.71 0 0 1-.17.1zm.53-.63h13.1l-.43-.63h-12.23l-.44.63zm12.67-.63l.43.63h1.09l-.44-.63h-1.08zm1.08 0l.44.63h1.04a.97.71 0 0 0-.02-.1l-.37-.53h-1.09zm1.09 0l.37.53a.97.71 0 0 1 .02.1h13.79a.97.71 0 0 1 .01-.05.97.71 0 0 1 .01-.05l.36-.53h-14.56zm14.56 0l-.36.53a.97.71 0 0 0-.01.05.97.71 0 0 0 0 .05h0a.97.71 0 0 0-.02.21.97.71 0 0 0 .02.27.97.71 0 0 0 0 .05l.07.1h.93a.87.63 0 0 0 .15-.02l-.27-.4.43-.62a.87.63 0 0 0-.31-.22h-.63zm.94.22l-.43.62.27.4a.87.63 0 0 0 .72-.61.87.63 0 0 0-.56-.41zm-1.23 1.04l-.07-.1a.97.71 0 0 1-.01-.05.97.71 0 0 1-.02-.27.97.71 0 0 1 .02-.21h-13.8a.97.71 0 0 1-.13.63h14.01zm-14 0a.97.71 0 0 0 .12-.63h-1.04 0-1.09l.36.53a.97.71 0 0 0 .17.1h1.48zM41.83 28.13a.97.71 0 0 0-.78.37.97.71 0 0 0-.09.02L9.82 73.72a.97.71 0 0 0 0 .05.97.71 0 0 0-.04.16.97.71 0 0 0-.06.1.97.71 0 0 0 .06.11.97.71 0 0 0 .04.16.97.71 0 0 0 0 .05l7.79 11.3a.97.71 0 0 0 .12.08.97.71 0 0 0 .27.17.97.71 0 0 0 .33.1.97.71 0 0 0 .15.04h23.35a.97.71 0 0 0 .15-.04.97.71 0 0 0 .22-.03.97.71 0 0 0 .07 0 .97.71 0 0 0 .16-.11.97.71 0 0 0 .12-.08.97.71 0 0 0 .12-.11.97.71 0 0 0 .03-.02l7.52-10.91h22.75a.97.71 0 0 0 .15-.04.97.71 0 0 0 .22-.03.97.71 0 0 0 .07 0 .97.71 0 0 0 .16-.11.97.71 0 0 0 .12-.07.97.71 0 0 0 .12-.12.97.71 0 0 0 .04-.02l6.91-10.03 14.7 21.33a.97.71 0 0 0 .12.08.97.71 0 0 0 .27.17.97.71 0 0 0 .33.1.97.71 0 0 0 .15.04h54.49a.97.71 0 0 0 .15-.04.97.71 0 0 0 .22-.03.97.71 0 0 0 .07 0 .97.71 0 0 0 .16-.11.97.71 0 0 0 .12-.08.97.71 0 0 0 .12-.11.97.71 0 0 0 .04-.02l6.91-10.04 6.91 10.04a.97.71 0 0 0 .13.08.97.71 0 0 0 .26.17.97.71 0 0 0 .34.1.97.71 0 0 0 .15.04h70.06a.97.71 0 0 0 .15-.04.97.71 0 0 0 .22-.03.97.71 0 0 0 .07 0 .97.71 0 0 0 .16-.11.97.71 0 0 0 .12-.08.97.71 0 0 0 .12-.11.97.71 0 0 0 .03-.02l15.3-22.21H267l15.3 22.21a.97.71 0 0 0 .09.02.97.71 0 0 0 .78.37h155.71a.97.71 0 0 0 .33-.1.97.71 0 0 0 .1.03.97.71 0 0 0 .16-.11.97.71 0 0 0 .12-.08.97.71 0 0 0 .13-.12.97.71 0 0 0 .02-.01l23.36-33.9a.97.71 0 0 0 .04-.14.97.71 0 0 0 .05-.17.97.71 0 0 0-.05-.18.97.71 0 0 0-.04-.14l-7.79-11.3a.97.71 0 0 0-.01 0 .97.71 0 0 0-.02-.02.97.71 0 0 0-.08-.09.97.71 0 0 0-.26-.16.97.71 0 0 0-.06-.04.97.71 0 0 0-.01 0 .97.71 0 0 0-.42-.08h-54.5a.97.71 0 0 0-.78.37.97.71 0 0 0-.09.02l-6.91 10.04-6.92-10.04a.97.71 0 0 0-.02 0 .97.71 0 0 0-.85-.39h-46.71a.97.71 0 0 0-.78.37.97.71 0 0 0-.09.02l-2.67 3.87.59.73 2.95-4.28h46.71l7.79 11.3 7.78-11.3h54.5l7.78 11.3-23.35 33.89H283.17l-15.57-22.6h-15.57l-15.57 22.6h-70.07l-7.78-11.3-7.79 11.3H96.33l-15.57-22.6-7.78 11.3H49.62l-7.79 11.3H18.48l-7.79-11.3 31.14-45.19h70.07l7.78 11.3h.01l7.78 11.3h0l-7.78-11.3h0-23.36L80.76 62.73l7.79 11.3h54.49l15.57-22.59-7.79-11.3h-7.78 7.78l7.79 11.3 7.78-11.3h46.71l7.79 11.3 7.79-11.3h46.68a.86.62 0 0 1 .07-.19.86.62 0 0 1 .65-.06.86.62 0 0 1 .24.13.97.71 0 0 0-.1-.22.97.71 0 0 0-.07-.08.97.71 0 0 0-.27-.17.97.71 0 0 0-.06-.04.97.71 0 0 0-.01 0 .97.71 0 0 0-.42-.08h-46.71a.97.71 0 0 0-.15.05.97.71 0 0 0-.33.1.97.71 0 0 0-.27.17.97.71 0 0 0-.12.07l-6.92 10.04-6.91-10.04a.97.71 0 0 0-.04-.02.97.71 0 0 0-.51-.32.97.71 0 0 0-.06-.01.97.71 0 0 0-.26-.04H166.4a.97.71 0 0 0-.15.05.97.71 0 0 0-.34.1.97.71 0 0 0-.26.17.97.71 0 0 0-.12.07l-6.92 10.04-6.91-10.04a.97.71 0 0 0-.04-.02.97.71 0 0 0-.51-.32.97.71 0 0 0-.06-.01.97.71 0 0 0-.27-.04h-7.78a.97.71 0 0 0-.15.05.97.71 0 0 0-.33.1.97.71 0 0 0-.27.17.97.71 0 0 0-.12.07l-15.57 22.6a.97.71 0 0 0-.05.48h1.16v.5a.97.71 0 0 0 .63-.35l15.3-22.21h6.58l7.3 10.6-15.08 21.89H89.15l-7.3-10.6 15.08-21.89h21.18l-14.87 21.58a.97.71 0 0 0 .11.67v-.19h1.74l14.59-21.18 6.7 9.72-7.57 10.98a.97.71 0 0 0-.04.48h1.89l7.68-11.15a.97.71 0 0 0 .02-.05.97.71 0 0 0 .05-.13.97.71 0 0 0 .02-.13.97.71 0 0 0-.02-.14.97.71 0 0 0-.05-.13.97.71 0 0 0-.02-.05l-15.57-22.6a.97.71 0 0 0-.03-.02.97.71 0 0 0-.51-.32.97.71 0 0 0-.06-.01.97.71 0 0 0-.27-.04H41.83zm238.3 16.42l10.83-15.71h23.35l-7.78 11.3h15.53l-.53-.71H308.1l6.42-9.31-.08-.09.25-.16.49-.71a.97.71 0 0 0 .08-.27.97.71 0 0 0 .02-.05.97.71 0 0 0 0-.03.97.71 0 0 0-.02-.07.97.71 0 0 0-.11-.24.97.71 0 0 0-.08-.08.97.71 0 0 0-.26-.17.97.71 0 0 0-.06-.04.97.71 0 0 0-.02 0 .97.71 0 0 0-.42-.08h-23.35a.97.71 0 0 0-.78.37.97.71 0 0 0-.09.02l-10.55 15.3.59.73zm0 0l.37.46a.86.62 0 0 1 .04.53l11.02-16h21.18l-7.08 10.28a.97.71 0 0 0-.02.17.97.71 0 0 0-.09.15.97.71 0 0 0 .06.1.97.71 0 0 0 .14.25.97.71 0 0 0 .24.19.97.71 0 0 0 .1.09.97.71 0 0 0 .11-.03.97.71 0 0 0 .33.1h16.06l-.53-.7h-15.53l7.78-11.3h-23.35l-10.83 15.71zm43.61-4.41h5.99a.86.62 0 0 1 .3-.29.86.62 0 0 1 .65-.07.86.62 0 0 1 .04.02.97.71 0 0 0 0 0 .97.71 0 0 0-.08-.09.97.71 0 0 0-.26-.16.97.71 0 0 0-.06-.04.97.71 0 0 0-.02 0 .97.71 0 0 0-.42-.08h-6.44l.46.61-.16.1zm0 0l-1.11.7h5.68l-6.82 9.89h-22.75a.97.71 0 0 0-.33.1.97.71 0 0 0-.1-.03.97.71 0 0 0-.11.09.97.71 0 0 0-.23.2.97.71 0 0 0-.02.01.97.71 0 0 0-.08.02l-7.78 11.3a.97.71 0 0 0 .43.95.97.71 0 0 0 1.15-.22h-.54a.87.63 0 0 1-.87-.63.87.63 0 0 1 .87-.63h.41l7.2-10.45h22.68a.86.62 0 0 1 .28-.8.86.62 0 0 1 .65-.07.86.62 0 0 1 .25.14l7.08-10.27a.86.62 0 0 1 .05-.3h-5.99zm5.94.3l-7.08 10.27a.86.62 0 0 1 .28.15l.38.47 6.93-10.06-.46-.57a.86.62 0 0 1-.05-.26h0zm3.53 4.59l-6.93 10.05.49.62a.86.62 0 0 1 .06.16l7.03-10.19a.86.62 0 0 1-.24-.13l-.41-.51zm.65.64l-7.02 10.19a.86.62 0 0 1-.38.69.86.62 0 0 1-.09-.01l-3.84 5.57a.87.63 0 0 1 .56.41.87.63 0 0 1-.72.61l7.51 10.9h46.71l7.1-10.29h-1.09l-6.61 9.59h-45.51l-7.29-10.6 11.76-17.07a.86.62 0 0 1-.15.1.86.62 0 0 1-.94-.09zm1.34-.37l3.07-4.46h45.5l7.3 10.6-7.09 10.3h1.09l7.09-10.3-7.78-11.3h-46.71l-2.96 4.28.39.49a.86.62 0 0 1 .1.38v.01zm56.96 6.14l-7.09 10.3h1.08l14.4-20.9h52.32l-6.81 9.89h-38.33a.97.71 0 0 0-.97.71.97.71 0 0 0 .97.7h37.35l-14.59 21.19h-52.32l6.61-9.59h-1.09l-7.1 10.29h54.5l15.57-22.59h0l7.78-11.3h-54.49l-7.78 11.3h-.01zm62.28-11.3l-7.78 11.3 7.78 11.29 7.79-11.29-7.79-11.3zm0 1.58l6.7 9.72-6.7 9.72-6.69-9.72 6.69-9.72zm0 21.01l-7.78-11.29-15.57 22.59 7.78 11.3 15.57-22.6zm-7.78-9.71l6.69 9.71-14.48 21.02-6.69-9.72 14.48-21.01zm-7.79 32.31l-7.78-11.3h-54.5l7.79 11.3h54.49zm-60.7-10.59h52.32l6.81 9.89h-52.32l-6.81-9.89zm6.21 10.59l-7.79-11.3h-46.71l7.79 11.3h46.71zm-52.92-10.59h44.53l6.81 9.89h-44.53l-6.81-9.89zm6.21 10.59l-7.79-11.3h-54.49l7.78 11.3h54.5zm-60.71-10.59h52.32l6.81 9.89h-52.32l-6.81-9.89zm-1.57-.71h54.49l-7.51-10.9a.87.63 0 0 1-.15.02h-.92l7.01 10.18h-52.32l-7.3-10.6 11.75-17.05a.86.62 0 0 1-.25.18.86.62 0 0 1-.85-.16l-7 10.16.1.13a.86.62 0 0 1-.31.85.86.62 0 0 1-.5.05l-4.03 5.84 7.79 11.3zm-7.79-11.3l4.03-5.84a.86.62 0 0 1-.68-.27l-.12-.15-3.83 5.56h-14.37l-6.81-9.89h21.53l-.29-.36a.86.62 0 0 1 .12-.34h-22.93l7.78 11.29h15.57zm-15.57 0l-7.78-11.29-15.57 22.59 7.78 11.3 15.57-22.6zm-7.78-9.71l6.69 9.71-14.48 21.02-6.69-9.72 14.48-21.01zm-7.79 32.31l-7.78-11.3h-23.36l7.79 11.3h23.35zM206.9 74.74h21.17l6.81 9.89h-21.17l-6.81-9.89zm6.21 10.59l-7.79-11.3h-46.71l7.78 11.3h46.72zm-52.92-10.59h44.53l6.81 9.89H167l-6.81-9.89zm-1.58-.71l-7.79-11.3-7.78 11.3 7.78 11.3 7.79-11.3zm-7.79-9.72l6.7 9.72-6.7 9.72-6.69-9.72 6.69-9.72zm7.79 9.72h46.71l7.78-11.3h0l7.79-11.29-7.79-11.3h-46.71l-15.57 22.59 7.79 11.3zM167 40.84h45.5l7.3 10.6-7.3 10.59h-38.32a.97.71 0 0 0-.97.7.97.71 0 0 0 .97.71h37.35l-6.81 9.89h-45.51l-7.3-10.6L167 40.84zm53.89 10.6l-15.57 22.59h23.36l15.57-22.59-7.79-11.3h-7.78l-7.79 11.3zm8.39-10.6h6.58l7.3 10.6-15.09 21.89H206.9l22.38-32.49zm7.18-.7l7.79 11.3h22.93a.86.62 0 0 1 .19-.51.86.62 0 0 1 .52.09l7.45-10.81a.86.62 0 0 1 .02-.07h-38.9zm1.58.7h35.77L267 50.73h-22.15l-6.81-9.89zm37.3-.63l-7.46 10.81a.86.62 0 0 1 .66.13l.19.23 6.87-9.98-.48-.6a.86.62 0 0 1 .22-.59zm3.29 4.94l-6.88 9.98.59.73 7-10.16a.86.62 0 0 1-.32-.06l-.39-.49zM150.82 85.33l-7.78-11.3h-54.5l7.79 11.3h54.49zm-60.7-10.59h52.32l6.81 9.89H96.93l-6.81-9.89zm202.51-12.85l6.11-8.87 6.12 8.87h1.09l-7.21-10.45-7.2 10.45h1.09zm13.32 0h1.08l-6.71-9.75h21.6l-.52-.65a.86.62 0 0 1 .02-.05h-22.68l7.21 10.45zm15.64 0h.63a.87.63 0 0 1 .31.22l3.84-5.58a.86.62 0 0 1-.96-.18l-3.82 5.54zm-14.29 1.26h-1.48a.97.71 0 0 0 1.14.22.97.71 0 0 0 .34-.22zm76.39.59l.69-1h-1.09l-.69 1h1.09zm0 0h1.09l.69-1h-1.09l-.69 1zm.69-1l.69-1h-1.09l-.69 1h1.09zm0 0h1.09l.68-1h-1.08l-.69 1zm-303.62-.01l-7.78-11.29-7.79 11.29 7.79 11.3 7.78-11.3zm-7.79-9.71l6.7 9.71-6.7 9.72-6.69-9.72 6.69-9.72v.01zm7.79 9.71l7.79-11.29H72.98l7.78 11.29zm-6.21-10.59h12.42l-6.21 9.02-6.21-9.02zm-1.57-.7H49.62l7.78-11.3h62.28l-7.78-11.3H41.83L10.69 74.03h23.36l7.78-11.3h23.36l7.78-11.29h.01zm-30.54-21.9h68.86l6.81 9.89H57.4a.97.71 0 0 0-.14.05.97.71 0 0 0-.34.1.97.71 0 0 0-.27.17.97.71 0 0 0-.12.07l-7.78 11.3a.97.71 0 0 0 .03.08.97.71 0 0 0-.14.24.97.71 0 0 0 .51.56.97.71 0 0 0 .03.07.97.71 0 0 0 .11-.03.97.71 0 0 0 .33.1H71.4l-6.81 9.89H41.83a.97.71 0 0 0-.33.1.97.71 0 0 0-.1-.03.97.71 0 0 0-.03.07.97.71 0 0 0-.32.23.97.71 0 0 0-.09.02l-7.51 10.91H12.27l30.17-43.79zm30.54 21.9h15.57l7.78-11.3H57.4l-7.78 11.3h23.36zm-14.97-10.6h36.75l-6.82 9.89H51.19l6.82-9.89zm7.18 21.89H41.83l7.79 11.3h23.36l-7.79-11.3zm-21.78.71h21.18l6.81 9.89H50.22l-6.81-9.89zm6.21 10.59l-7.78-11.3-7.79 11.3 7.79 11.3 7.78-11.3zm-7.79-9.72l6.7 9.72-6.7 9.72-6.69-9.72 6.69-9.72zm.01 21.02l-7.79-11.3H10.69l7.79 11.3h23.36zM12.27 74.74h21.17l6.82 9.89H19.08l-6.81-9.89zm106.5-11.84a.97.71 0 0 1 .04-.48l7.57-10.98-6.7-9.72-14.59 21.18h13.68zm-15.42.19a.97.71 0 0 1-.11-.67l14.87-21.58H96.93L81.85 62.73l7.3 10.6h53.29l15.08-21.89-7.3-10.6h-6.58l-15.3 22.21a.97.71 0 0 1-.63.35v.62h-24.36v-.93zm226.84-21.82l-6.93 10.06 3.02 3.75 6.93-10.05-3.02-3.76zm4.76 4.39l-11.76 17.07 7.29 10.6h45.51l6.61-9.59h-37.15a1 1 0 1 1 0-2h38.53l7.09-10.3-7.29-10.6h-45.51l-3.07 4.45a.86.62 0 0 1-.25.37zm10.5 4.78h31.15a1 1 0 1 1 0 2h-31.15a1 1 0 1 1 0-2zm-69.84-9.04l-6.88 9.98 3.02 3.76 6.88-9.98-3.02-3.76zm-4.78 15.07l-3.48-4.33h-21.53l6.81 9.89H267l3.83-5.56zm9.61-10.79l-11.75 17.05 7.3 10.6h52.32l-7.01-10.18h-14a.97.71 0 0 1-.34.22.97.71 0 0 1-1.14-.22h-14.15a.97.71 0 0 1-1.15.22.97.71 0 0 1-.43-.95l7.78-11.3a.97.71 0 0 1 .08-.02.97.71 0 0 1 .02-.01.97.71 0 0 1 .23-.2.97.71 0 0 1 .11-.08.97.71 0 0 1 .1.02.97.71 0 0 1 .33-.1h22.75l6.82-9.89h-5.68l-.03.02-.01-.02h-16.06a.97.71 0 0 1-.33-.1.97.71 0 0 1-.11.03.97.71 0 0 1-.1-.09.97.71 0 0 1-.24-.19.97.71 0 0 1-.13-.25.97.71 0 0 1-.06-.1.97.71 0 0 1 .08-.15.97.71 0 0 1 .02-.17l7.08-10.27h-21.18l-11.02 15.99a.86.62 0 0 1-.1.14h0zm12.19 16.21h12.23l-6.12-8.87-6.11 8.87zm14.4 0h14.56l3.82-5.54a.86.62 0 0 1-.12-.02l-3.37-4.19h-21.6l6.71 9.75zm79.12-.15h37.16a1 1 0 1 1 0 2h-38.53l-6.61 9.59h52.32l14.59-21.19h-37.35a.97.71 0 0 1-.97-.7.97.71 0 0 1 .97-.71h38.33l6.81-9.89h-52.32l-14.4 20.9zm0 0l-.68 1h0l-.69 1h38.53a1 1 0 1 0 0-2h-37.16zm-2.86 1l.69-1h-38.53a1 1 0 1 0 0 2h37.15l.69-1zm-61.76-23.31l-7.01-9.3-6.42 9.3h13.43zM42.44 29.55L12.27 73.33h21.17l7.52-10.91a.97.71 0 0 1 .09-.02.97.71 0 0 1 .32-.23.97.71 0 0 1 .03-.07.97.71 0 0 1 .1.03.97.71 0 0 1 .33-.1h22.76l6.81-9.89H49.62a.97.71 0 0 1-.33-.1.97.71 0 0 1-.11.03.97.71 0 0 1-.03-.07.97.71 0 0 1-.51-.56.97.71 0 0 1 .14-.24.97.71 0 0 1-.03-.08l7.78-11.3a.97.71 0 0 1 .12-.07.97.71 0 0 1 .27-.17.97.71 0 0 1 .34-.1.97.71 0 0 1 .14-.05h60.71l-6.81-9.88H42.44zm15.57 11.29l-6.82 9.89h36.75l6.81-9.89H58.01zm108.99 0l-15.09 21.89 7.3 10.6h45.51l6.81-9.89h-37.35a.97.71 0 0 1-.97-.71.97.71 0 0 1 .97-.7h38.32l7.3-10.59-7.3-10.6H167zm7.18 9.6h31.14a1 1 0 1 1 0 2h-31.14a1 1 0 1 1 0-2zm55.1-9.6L206.9 73.33h21.17l15.09-21.89-7.3-10.6h-6.58zm8.76 0l6.81 9.89H267l6.81-9.89h-35.77zm216.41.88l-6.7 9.72 6.7 9.72 6.69-9.72-6.69-9.72zm-280.27 8.72a1 1 0 1 0 0 2h31.14a1 1 0 1 0 0-2h-31.14zm171.27 0a1 1 0 1 0 0 2h31.15a1 1 0 1 0 0-2h-31.15zm-270.9 1.7l6.21 9.02 6.21-9.02H74.55zm-1.58.88l-6.69 9.71 6.69 9.73 6.7-9.72-6.7-9.72zm171.28 0l-14.48 21.01 6.69 9.72 14.48-21.02-6.69-9.71zm202.41 0l-14.48 21.01 6.7 9.72 14.48-21.02-6.7-9.71zM43.41 63.44l6.81 9.89H71.4l-6.81-9.89H43.41zm-1.58.87l-6.69 9.72 6.69 9.72 6.7-9.72-6.7-9.72zm108.99 0l-6.69 9.72 6.69 9.72 6.7-9.72-6.7-9.72zM12.27 74.74l6.81 9.89h21.18l-6.82-9.89H12.27zm77.85 0l6.81 9.89h52.32l-6.81-9.89H90.12zm70.07 0l6.81 9.89h44.53l-6.81-9.89h-44.53zm46.71 0l6.81 9.89h21.17l-6.81-9.89H206.9zm70.06 0l6.81 9.89h52.32l-6.81-9.89h-52.32zm54.5 0l6.81 9.89h44.53l-6.81-9.89h-44.53zm46.71 0l6.81 9.89h52.32l-6.81-9.89h-52.32z" fill-rule="evenodd" stroke="#fff" stroke-linecap="round" stroke-width=".4"/></g></svg>